Coordinates
version=1
nRows=4
nColumns=40
inDegrees=yes

Units are S.I. units (second, meters, Newtons, ...)
If the header above contains a line with 'inDegrees', this indicates whether rotational values are in degrees (yes) or radians (no).

endheader
time	pelvis_tilt	pelvis_list	pelvis_rotation	pelvis_tx	pelvis_ty	pelvis_tz	hip_flexion_r	hip_adduction_r	hip_rotation_r	knee_angle_r	knee_angle_r_beta	ankle_angle_r	subtalar_angle_r	mtp_angle_r	hip_flexion_l	hip_adduction_l	hip_rotation_l	knee_angle_l	knee_angle_l_beta	ankle_angle_l	subtalar_angle_l	mtp_angle_l	lumbar_extension	lumbar_bending	lumbar_rotation	arm_flex_r	arm_add_r	arm_rot_r	elbow_flex_r	pro_sup_r	wrist_flex_r	wrist_dev_r	arm_flex_l	arm_add_l	arm_rot_l	elbow_flex_l	pro_sup_l	wrist_flex_l	wrist_dev_l
      7.84999999999999964473	      8.34567231864459557755	     -3.37724968566334471376	   -167.35636935124435353828	      0.30999430181966425302	      0.75410160455863761708	     -0.61270959818432102484	     58.67789887704890361420	    -21.85203353917308177756	     -0.93700629919470479479	     70.88685177934236492092	      1.23720895992272517105	     23.50282824350172816708	      0.00000000000000000000	      0.00000000000000000000	     60.13099875266264149332	     -0.74561672285513935776	      1.21518789196339827008	     68.25852225023858466102	      1.19133595581247209161	     17.36239134130379824228	      0.00000000000000000000	      0.00000000000000000000	    -56.13104427561314935247	      8.77958332538078067842	    -11.97682331329348670579	      0.00000000000000000000	    -11.43465658281157004694	      0.00000000000000000000	     72.80287690999026040117	     45.21713504383096449146	      0.00000000000000000000	      0.00000000000000000000	      0.00000000000000000000	    -11.43465658281157004694	      0.00000000000000000000	     72.80287690999026040117	     45.21713504383096449146	      0.00000000000000000000	      0.00000000000000000000
      7.85500000000000042633	      8.15303205678990927652	     -3.51655230252901418453	   -167.46632345423734022916	      0.30988612834030243581	      0.75575221207799325729	     -0.61284933353739556861	     58.27833691199067089883	    -21.81931402843748912801	     -0.90602226581102074388	     70.55373222587070358713	      1.23139492691187135698	     23.49112251521359695516	      0.00000000000000000000	      0.00000000000000000000	     59.61041725633105414772	     -0.80603256311579507543	      0.99389888928752256891	     67.84707520319038565049	      1.18415485014387300566	     17.41009672289976606407	      0.00000000000000000000	      0.00000000000000000000	    -56.33720827372676609457	      8.62909281435279318373	    -12.03652835346893290591	      0.00000000000000000000	    -11.46293904517666106813	      0.00000000000000000000	     72.83571493784323536147	     45.20917421644717393292	      0.00000000000000000000	      0.00000000000000000000	      0.00000000000000000000	    -11.46293904517666106813	      0.00000000000000000000	     72.83571493784323536147	     45.20917421644717393292	      0.00000000000000000000	      0.00000000000000000000
      7.86000000000000031974	      8.26252914916519820565	     -3.37344211645685376766	   -167.40145588074915394827	      0.31017457219234356725	      0.75622031363153030536	     -0.61249922254137356692	     58.30209988540773480281	    -21.83502145364841595665	     -1.11634362555941679673	     70.39234275322495193450	      1.22857814923614561131	     23.19952737493988337292	      0.00000000000000000000	      0.00000000000000000000	     59.76476258705120869763	     -0.81083170533931225865	      1.10984655458981618104	     67.78508901931417085507	      1.18307298714448649868	     17.15512440239333002978	      0.00000000000000000000	      0.00000000000000000000	    -56.20934243384407835720	      8.76635084788915364129	    -11.94080841294196204672	      0.00000000000000000000	    -11.48747499767034518925	      0.00000000000000000000	     72.86380743504354029483	     45.20266726364811660233	      0.00000000000000000000	      0.00000000000000000000	      0.00000000000000000000	    -11.48747499767034518925	      0.00000000000000000000	     72.86380743504354029483	     45.20266726364811660233	      0.00000000000000000000	      0.00000000000000000000
      7.86500000000000021316	      8.23975478243021797198	     -3.45296072600968528832	   -167.42117466504123513005	      0.31005325998657956577	      0.75752749199522206869	     -0.61260953667405582124	     58.06872351527501052715	    -21.85213263004625616759	     -1.15786209498852987743	     70.06700459988428519864	      1.22289992727799279315	     23.25994921978410800989	      0.00000000000000000000	      0.00000000000000000000	     59.45690095845030498367	     -0.78949293335805237337	      1.00765824989369612297	     67.38145547289802550495	      1.17602825278802325393	     17.20751568702176115266	      0.00000000000000000000	      0.00000000000000000000	    -56.14226334566635046031	      8.69246237410759903241	    -11.96365640254163587031	      0.00000000000000000000	    -11.50927484656959443043	      0.00000000000000000000	     72.88878304773263039351	     45.19685241260816610520	      0.00000000000000000000	      0.00000000000000000000	      0.00000000000000000000	    -11.50927484656959443043	      0.00000000000000000000	     72.88878304773263039351	     45.19685241260816610520	      0.00000000000000000000	      0.00000000000000000000
